<svg xmlns="http://www.w3.org/2000/svg" width="1200" height="720" viewBox="0 0 1200 720" role="img" aria-label="Room Layout AI optimize animation preview">
  <defs>
    <filter id="shadow" x="-20%" y="-20%" width="140%" height="140%">
      <feDropShadow dx="0" dy="16" stdDeviation="18" flood-color="#0f172a" flood-opacity="0.14"/>
    </filter>
    <linearGradient id="scan" x1="0" x2="1">
      <stop offset="0" stop-color="#06b6d4" stop-opacity="0"/>
      <stop offset="0.5" stop-color="#06b6d4" stop-opacity="0.9"/>
      <stop offset="1" stop-color="#06b6d4" stop-opacity="0"/>
    </linearGradient>
  </defs>
  <rect width="1200" height="720" fill="#f7f8fb"/>
  <rect x="52" y="46" width="1096" height="628" rx="16" fill="#fff" stroke="#e2e8f0"/>
  <text x="90" y="104" fill="#0f172a" font-family="Inter, system-ui, sans-serif" font-size="42" font-weight="700">Room Layout AI</text>
  <text x="92" y="138" fill="#64748b" font-family="Inter, system-ui, sans-serif" font-size="18">Spatial AI Playground</text>
  <g transform="translate(312 150)" filter="url(#shadow)">
    <rect width="600" height="420" rx="24" fill="#ffffff" stroke="#cbd5e1" stroke-width="2"/>
    <path d="M40 0V420M80 0V420M120 0V420M160 0V420M200 0V420M240 0V420M280 0V420M320 0V420M360 0V420M400 0V420M440 0V420M480 0V420M520 0V420M560 0V420M0 40H600M0 80H600M0 120H600M0 160H600M0 200H600M0 240H600M0 280H600M0 320H600M0 360H600M0 400H600" stroke="#edf2f7"/>
    <rect x="20" y="332" width="146" height="88" rx="14" fill="#ecfeff" stroke="#67e8f9" stroke-dasharray="8 8"/>
    <rect x="238" y="172" width="138" height="92" rx="14" fill="#dbeafe" stroke="#60a5fa" stroke-width="2">
      <animate attributeName="x" values="238;28" dur="1.9s" begin="0.4s" fill="freeze"/>
      <animate attributeName="y" values="172;28" dur="1.9s" begin="0.4s" fill="freeze"/>
    </rect>
    <rect x="286" y="152" width="118" height="54" rx="14" fill="#ccfbf1" stroke="#14b8a6" stroke-width="2">
      <animate attributeName="x" values="286;454" dur="1.9s" begin="0.4s" fill="freeze"/>
      <animate attributeName="y" values="152;28" dur="1.9s" begin="0.4s" fill="freeze"/>
    </rect>
    <rect x="330" y="218" width="46" height="46" rx="14" fill="#fef3c7" stroke="#f59e0b" stroke-width="2">
      <animate attributeName="x" values="330;490" dur="1.9s" begin="0.4s" fill="freeze"/>
      <animate attributeName="y" values="218;100" dur="1.9s" begin="0.4s" fill="freeze"/>
    </rect>
    <rect x="82" y="286" width="132" height="62" rx="14" fill="#ffe4e6" stroke="#fb7185" stroke-width="2">
      <animate attributeName="x" values="82;440" dur="1.9s" begin="0.4s" fill="freeze"/>
      <animate attributeName="y" values="286;330" dur="1.9s" begin="0.4s" fill="freeze"/>
    </rect>
    <rect x="32" y="320" width="94" height="38" rx="14" fill="#f1f5f9" stroke="#64748b" stroke-width="2">
      <animate attributeName="x" values="32;478" dur="1.9s" begin="0.4s" fill="freeze"/>
      <animate attributeName="y" values="320;192" dur="1.9s" begin="0.4s" fill="freeze"/>
    </rect>
    <rect x="0" y="92" width="600" height="5" rx="3" fill="url(#scan)">
      <animate attributeName="y" values="42;342;42" dur="2.8s" repeatCount="indefinite"/>
    </rect>
  </g>
  <g transform="translate(928 180)">
    <rect width="172" height="266" rx="14" fill="#f8fafc" stroke="#e2e8f0"/>
    <text x="20" y="38" fill="#0f172a" font-family="Inter, system-ui, sans-serif" font-size="16" font-weight="700">AI Score</text>
    <text x="20" y="92" fill="#0891b2" font-family="Inter, system-ui, sans-serif" font-size="46" font-weight="800">92</text>
    <rect x="20" y="122" width="132" height="10" rx="5" fill="#e2e8f0"/>
    <rect x="20" y="122" width="116" height="10" rx="5" fill="#0891b2"/>
    <rect x="20" y="158" width="132" height="10" rx="5" fill="#e2e8f0"/>
    <rect x="20" y="158" width="104" height="10" rx="5" fill="#7c3aed"/>
    <rect x="20" y="194" width="132" height="10" rx="5" fill="#e2e8f0"/>
    <rect x="20" y="194" width="122" height="10" rx="5" fill="#059669"/>
  </g>
</svg>
