<svg xmlns="http://www.w3.org/2000/svg" width="1440" height="900" viewBox="0 0 1440 900" role="img" aria-label="Room Layout AI app screenshot preview">
  <rect width="1440" height="900" fill="#f7f8fb"/>
  <rect x="32" y="28" width="1376" height="78" rx="14" fill="#ffffff" stroke="#e2e8f0"/>
  <text x="58" y="60" fill="#64748b" font-family="Inter, system-ui, sans-serif" font-size="13" font-weight="700" letter-spacing="3">SPATIAL AI PLAYGROUND</text>
  <text x="58" y="92" fill="#0f172a" font-family="Inter, system-ui, sans-serif" font-size="32" font-weight="800">Room Layout AI</text>
  <rect x="1210" y="48" width="146" height="40" rx="10" fill="#0f172a"/>
  <text x="1244" y="74" fill="#ffffff" font-family="Inter, system-ui, sans-serif" font-size="15" font-weight="700">Optimize</text>
  <rect x="32" y="126" width="292" height="734" rx="14" fill="#ffffff" stroke="#e2e8f0"/>
  <rect x="344" y="126" width="748" height="734" rx="14" fill="#ffffff" stroke="#e2e8f0"/>
  <rect x="1112" y="126" width="296" height="734" rx="14" fill="#ffffff" stroke="#e2e8f0"/>
  <g transform="translate(420 252)">
    <rect width="600" height="420" rx="24" fill="#fff" stroke="#cbd5e1" stroke-width="2"/>
    <path d="M40 0V420M80 0V420M120 0V420M160 0V420M200 0V420M240 0V420M280 0V420M320 0V420M360 0V420M400 0V420M440 0V420M480 0V420M520 0V420M560 0V420M0 40H600M0 80H600M0 120H600M0 160H600M0 200H600M0 240H600M0 280H600M0 320H600M0 360H600M0 400H600" stroke="#edf2f7"/>
    <rect x="20" y="332" width="146" height="88" rx="14" fill="#ecfeff" stroke="#67e8f9" stroke-dasharray="8 8"/>
    <rect x="28" y="28" width="138" height="92" rx="14" fill="#dbeafe" stroke="#60a5fa" stroke-width="2"/>
    <rect x="454" y="28" width="118" height="54" rx="14" fill="#ccfbf1" stroke="#14b8a6" stroke-width="2"/>
    <rect x="490" y="100" width="46" height="46" rx="14" fill="#fef3c7" stroke="#f59e0b" stroke-width="2"/>
    <rect x="440" y="330" width="132" height="62" rx="14" fill="#ffe4e6" stroke="#fb7185" stroke-width="2"/>
    <rect x="478" y="192" width="94" height="38" rx="14" fill="#f1f5f9" stroke="#64748b" stroke-width="2"/>
  </g>
  <g transform="translate(64 168)" font-family="Inter, system-ui, sans-serif">
    <text x="0" y="0" fill="#0f172a" font-size="16" font-weight="800">Room size</text>
    <rect x="0" y="28" width="220" height="8" rx="4" fill="#e2e8f0"/>
    <rect x="0" y="28" width="148" height="8" rx="4" fill="#0891b2"/>
    <text x="0" y="92" fill="#0f172a" font-size="16" font-weight="800">Furniture</text>
    <rect x="0" y="118" width="96" height="72" rx="10" fill="#f8fafc" stroke="#e2e8f0"/>
    <rect x="112" y="118" width="96" height="72" rx="10" fill="#f8fafc" stroke="#e2e8f0"/>
    <rect x="0" y="204" width="96" height="72" rx="10" fill="#f8fafc" stroke="#e2e8f0"/>
    <rect x="112" y="204" width="96" height="72" rx="10" fill="#f8fafc" stroke="#e2e8f0"/>
  </g>
  <g transform="translate(1148 168)" font-family="Inter, system-ui, sans-serif">
    <text x="0" y="0" fill="#0f172a" font-size="16" font-weight="800">Optimization</text>
    <text x="0" y="34" fill="#64748b" font-size="13">Live spatial scoring</text>
    <rect x="0" y="62" width="224" height="68" rx="10" fill="#fff" stroke="#e2e8f0"/>
    <rect x="18" y="100" width="188" height="9" rx="5" fill="#e2e8f0"/>
    <rect x="18" y="100" width="168" height="9" rx="5" fill="#0891b2"/>
    <rect x="0" y="146" width="224" height="68" rx="10" fill="#fff" stroke="#e2e8f0"/>
    <rect x="18" y="184" width="188" height="9" rx="5" fill="#e2e8f0"/>
    <rect x="18" y="184" width="154" height="9" rx="5" fill="#7c3aed"/>
    <rect x="0" y="230" width="224" height="68" rx="10" fill="#fff" stroke="#e2e8f0"/>
    <rect x="18" y="268" width="188" height="9" rx="5" fill="#e2e8f0"/>
    <rect x="18" y="268" width="176" height="9" rx="5" fill="#059669"/>
  </g>
</svg>
